<?xml version="1.0" standalone="no"?>
<!DOCTYPE svg PUBLIC "-//W3C//DTD SVG 20010904//EN"
 "http://www.w3.org/TR/2001/REC-SVG-20010904/DTD/svg10.dtd">
<svg version="1.0" xmlns="http://www.w3.org/2000/svg"
 width="700.000000pt" height="700.000000pt" viewBox="0 0 700.000000 700.000000"
 preserveAspectRatio="xMidYMid meet">
<metadata>
Created by potrace 1.11, written by Peter Selinger 2001-2013
</metadata>
<g transform="translate(0.000000,700.000000) scale(0.100000,-0.100000)"
fill="#000000" stroke="none">
<path d="M3278 6996 c-1 -2 -41 -6 -88 -10 -47 -4 -96 -8 -110 -11 -14 -2 -45
-7 -70 -9 -25 -3 -54 -7 -65 -10 -11 -2 -40 -7 -65 -10 -25 -3 -60 -10 -77
-15 -18 -5 -33 -8 -33 -6 0 3 -11 0 -26 -5 -14 -6 -39 -12 -57 -15 -97 -18
-403 -114 -502 -160 -27 -12 -59 -25 -71 -29 -59 -18 -344 -168 -469 -247
-802 -503 -1389 -1342 -1570 -2244 -8 -38 -16 -79 -18 -90 -3 -11 -8 -40 -12
-65 -3 -25 -9 -58 -11 -74 -3 -16 -7 -50 -9 -75 -3 -25 -8 -82 -12 -126 -15
-155 -8 -591 12 -705 2 -14 6 -45 9 -70 16 -130 33 -218 77 -393 27 -110 68
-244 88 -292 5 -11 26 -65 46 -120 56 -146 162 -365 238 -490 252 -413 498
-691 910 -1021 9 -8 21 -14 26 -14 5 0 11 -4 13 -8 2 -5 39 -33 83 -63 44 -30
82 -56 85 -59 3 -3 16 -11 30 -18 14 -7 45 -25 70 -41 51 -33 123 -73 255
-140 281 -144 673 -269 993 -316 15 -2 45 -7 67 -10 22 -3 54 -8 70 -10 186
-27 656 -26 845 1 19 2 56 9 83 14 26 6 51 9 55 8 11 -3 138 22 242 49 52 13
102 25 111 27 9 3 47 14 85 25 38 11 71 20 74 20 12 0 232 86 340 133 162 71
332 163 489 266 96 63 231 159 246 177 6 6 17 16 26 21 52 29 302 262 404 376
73 81 145 167 187 223 4 6 18 24 31 40 63 79 146 209 140 218 -3 5 -2 7 4 4 5
-4 16 6 24 21 7 15 19 35 27 44 8 9 11 23 6 30 -4 7 -4 10 1 6 18 -17 171 285
258 507 85 220 161 503 192 715 1 8 5 31 8 50 37 209 44 720 12 925 -9 58 -15
100 -20 140 -3 22 -8 51 -11 65 -3 14 -8 36 -10 50 -18 97 -80 333 -94 361 -6
10 -8 19 -6 19 3 0 -11 43 -30 97 -184 509 -450 933 -816 1303 -94 95 -168
163 -238 220 -30 25 -57 48 -60 51 -10 11 -167 127 -230 170 -153 103 -404
242 -550 304 -36 15 -83 35 -105 45 -119 52 -416 142 -580 175 -44 9 -89 19
-100 21 -11 2 -38 6 -60 9 -22 3 -51 7 -65 10 -13 2 -54 7 -90 11 -36 3 -78 8
-95 11 -33 5 -531 13 -537 9z"/>
</g>
</svg>
